Coordinates
version=1
nRows=29
nColumns=24
inDegrees=yes

Units are S.I. units (second, meters, Newtons, ...)
Angles are in degrees.

endheader
time	pelvis_tilt	pelvis_list	pelvis_rotation	pelvis_tx	pelvis_ty	pelvis_tz	hip_flexion_r	hip_adduction_r	hip_rotation_r	knee_angle_r	ankle_angle_r	subtalar_angle_r	mtp_angle_r	hip_flexion_l	hip_adduction_l	hip_rotation_l	knee_angle_l	ankle_angle_l	subtalar_angle_l	mtp_angle_l	lumbar_extension	lumbar_bending	lumbar_rotation
      1.15433333	     -1.89260977	      4.98771260	     -3.62289679	      0.15986558	      0.90467061	      0.31473083	     20.42141122	     -8.03770472	     -6.08351033	    -78.59959764	     -4.20357002	      1.99997104	      6.08685527	     13.05941778	      8.11564290	     -4.65844865	    -20.88298348	     11.19190338	     -5.17276330	      3.56124407	     -6.34724990	     -7.74618726	      1.48384611
      1.15850000	     -1.92664484	      4.82450707	     -3.53215939	      0.16489196	      0.90564543	      0.31448102	     21.12800888	     -7.76412597	     -6.15699234	    -78.57532990	     -3.94194721	      1.87655278	      6.05959236	     12.48351214	      8.01026624	     -4.49544422	    -20.39938452	     11.24773795	     -5.10039195	      3.55847318	     -6.33561318	     -7.55542109	      1.39018404
      1.16266667	     -1.94171201	      4.63522340	     -3.40290696	      0.16988956	      0.90665713	      0.31417060	     21.77929651	     -7.47137656	     -6.27241965	    -78.46479373	     -3.66888845	      1.75616574	      5.97901428	     11.88359839	      7.89589975	     -4.21935816	    -19.90660693	     11.23394398	     -5.16984965	      3.54366681	     -6.39697594	     -7.31022396	      1.13697342
      1.16683333	     -1.97338650	      4.46334539	     -3.29185812	      0.17491220	      0.90761287	      0.31387818	     22.44164825	     -7.18989190	     -6.35490013	    -78.29436980	     -3.42358262	      1.70973992	      5.91038330	     11.29446922	      7.78784073	     -4.00002489	    -19.39163227	     11.24696650	     -5.17387177	      3.53069593	     -6.39947034	     -7.10388049	      0.95330453
      1.17100000	     -2.00502161	      4.27868039	     -3.17586404	      0.17993008	      0.90855166	      0.31360211	     23.08193628	     -6.89083548	     -6.44234987	    -78.05070168	     -3.17101433	      1.68624521	      5.85886498	     10.70953022	      7.65889195	     -3.78934966	    -18.88517195	     11.25881478	     -5.15936381	      3.51958488	     -6.40578213	     -6.87894285	      0.79540363
      1.17516667	     -2.03211740	      4.08744072	     -3.05025044	      0.18494322	      0.90947561	      0.31330639	     23.69515799	     -6.58798630	     -6.53698423	    -77.73584657	     -2.91867409	      1.68562810	      5.81375792	     10.11998757	      7.52290441	     -3.57019099	    -18.37555581	     11.26473415	     -5.14844403	      3.50885492	     -6.41607547	     -6.64678582	      0.62456008
      1.17933333	     -2.05361579	      3.89327343	     -2.92274319	      0.18994924	      0.91038092	      0.31301860	     24.28330979	     -6.28133184	     -6.62991020	    -77.35385629	     -2.66707706	      1.71464677	      5.77094102	      9.52292146	      7.38032296	     -3.34733583	    -17.85812526	     11.26404265	     -5.14623161	      3.49725069	     -6.43596338	     -6.41029766	      0.44183368
      1.18350000	     -2.05139187	      3.71449039	     -2.79021272	      0.19496085	      0.91129095	      0.31270328	     24.82782038	     -6.00283636	     -6.72589380	    -76.91089051	     -2.42868455	      1.77097126	      5.69536853	      8.88407315	      7.26286122	     -3.07883320	    -17.30133892	     11.27207227	     -5.22182478	      3.47586626	     -6.48219817	     -6.19279799	      0.17274226
      1.18766667	     -2.09020515	      3.51085106	     -2.65336941	      0.19993638	      0.91210766	      0.31243469	     25.39755864	     -5.68102748	     -6.81694874	    -76.39972193	     -2.15425365	      1.82381733	      5.66419727	      8.32350641	      7.09407548	     -2.89054382	    -16.80872196	     11.23784130	     -5.17351542	      3.46531927	     -6.48009585	     -5.94623748	      0.04955627
      1.19183333	     -2.09865981	      3.30613831	     -2.51173784	      0.20491386	      0.91293972	      0.31215318	     25.91076048	     -5.36793093	     -6.91620291	    -75.81982430	     -1.89408531	      1.90405900	      5.63343179	      7.72127860	      6.92735675	     -2.67763789	    -16.29545347	     11.23114077	     -5.15424995	      3.45496755	     -6.51734839	     -5.69569001	     -0.12330912
      1.19600000	     -2.07854434	      3.12813012	     -2.37511596	      0.20989352	      0.91376180	      0.31185762	     26.38137371	     -5.09484791	     -7.00772344	    -75.19212627	     -1.64560015	      2.00236428	      5.57493836	      7.06862065	      6.79721799	     -2.42495362	    -15.73378283	     11.23292731	     -5.21920240	      3.43613694	     -6.58652117	     -5.47953323	     -0.39397585
      1.20016667	     -2.10180376	      2.92315032	     -2.23095956	      0.21482585	      0.91448899	      0.31160673	     26.87818688	     -4.77815644	     -7.09933774	    -74.49315877	     -1.37470867	      2.09056818	      5.54614692	      6.50096172	      6.61627634	     -2.24152300	    -15.24272685	     11.19101026	     -5.18274664	      3.42579549	     -6.60826173	     -5.23064960	     -0.53255271
      1.20433333	     -2.09680244	      2.72586756	     -2.08724085	      0.21976645	      0.91521125	      0.31135593	     27.32381862	     -4.47878571	     -7.19283587	    -73.73629446	     -1.11439164	      2.18397253	      5.51867560	      5.89372643	      6.44363170	     -2.04585442	    -14.73096007	     11.17769742	     -5.15962824	      3.41667896	     -6.66214350	     -4.99350512	     -0.70969092
      1.20850000	     -2.08195058	      2.53459292	     -1.94428520	      0.22469457	      0.91590155	      0.31110750	     27.74175699	     -4.18984771	     -7.28350996	    -72.92124220	     -0.86272952	      2.27696545	      5.48850483	      5.27556633	      6.27606795	     -1.84785179	    -14.21280682	     11.16308819	     -5.15461759	      3.40724198	     -6.72710004	     -4.76390986	     -0.91218444
      1.21266667	     -2.04869177	      2.36548514	     -1.80524655	      0.22962050	      0.91655673	      0.31086492	     28.12806850	     -3.93025641	     -7.36552993	    -72.06390771	     -0.61948959	      2.35732195	      5.43802237	      4.62398529	      6.13418211	     -1.62908719	    -13.65921428	     11.15600955	     -5.19865068	      3.39392735	     -6.81056667	     -4.55716340	     -1.17010950
      1.21683333	     -2.03303702	      2.18427239	     -1.66409494	      0.23451839	      0.91714392	      0.31064875	     28.51155892	     -3.65348458	     -7.44796028	    -71.14007955	     -0.37668526	      2.42904273	      5.39708283	      4.01684236	      5.96666387	     -1.44788140	    -13.15408494	     11.13978401	     -5.18649521	      3.38451919	     -6.87530059	     -4.33964911	     -1.35698878
      1.22100000	     -2.03448666	      1.99915246	     -1.52111282	      0.23939432	      0.91765526	      0.31045976	     28.89424248	     -3.36791639	     -7.52451726	    -70.15730002	     -0.12596953	      2.48979903	      5.37325406	      3.44784407	      5.78469115	     -1.30599940	    -12.68355410	     11.10827284	     -5.13490365	      3.37964611	     -6.92253575	     -4.12102160	     -1.50370591
      1.22516667	     -1.99798338	      1.82776193	     -1.38212106	      0.24427177	      0.91816625	      0.31028255	     29.21755411	     -3.10204406	     -7.59630059	    -69.12306966	      0.09851890	      2.52162351	      5.34257807	      2.82364357	      5.61860586	     -1.14350436	    -12.18060946	     11.10861633	     -5.10808700	      3.37602234	     -7.01555605	     -3.92353189	     -1.70817179
      1.22933333	     -1.98240879	      1.66575528	     -1.24660674	      0.24913997	      0.91858210	      0.31011045	     29.54910631	     -2.84747782	     -7.66257053	    -68.04289483	      0.32505711	      2.53826155	      5.31774650	      2.23478364	      5.45766934	     -1.01143500	    -11.69952571	     11.09584455	     -5.06306188	      3.37465964	     -7.08127302	     -3.72620966	     -1.88409629
      1.23350000	     -1.94703547	      1.50988324	     -1.10872700	      0.25398994	      0.91897694	      0.30996527	     29.83792752	     -2.59785733	     -7.72087188	    -66.90413473	      0.53222828	      2.52289183	      5.28951571	      1.62565945	      5.29834082	     -0.87374880	    -11.21571942	     11.09461635	     -5.02571224	      3.37529980	     -7.17212964	     -3.54261374	     -2.08226069
      1.23766667	     -1.90610355	      1.37289814	     -0.98052451	      0.25884926	      0.91931234	      0.30981990	     30.10690443	     -2.36965649	     -7.76702974	    -65.72636048	      0.71886064	      2.47310571	      5.24722535	      1.00227005	      5.16139745	     -0.73122294	    -10.71358984	     11.10530903	     -5.00189291	      3.37915584	     -7.26855589	     -3.37998322	     -2.31592569
      1.24183333	     -1.89216796	      1.22453438	     -0.84802590	      0.26368914	      0.91955952	      0.30970939	     30.37998331	     -2.12429511	     -7.81188634	    -64.48481674	      0.92071685	      2.42304286	      5.21940747	      0.43763797	      5.00009171	     -0.63570513	    -10.27058424	     11.09155428	     -4.93947484	      3.38359484	     -7.33132263	     -3.21006519	     -2.47687519
      1.24600000	     -1.86360566	      1.09141826	     -0.72172306	      0.26852929	      0.91976367	      0.30960891	     30.62076408	     -1.89527679	     -7.84608206	    -63.20038279	      1.09585764	      2.32792995	      5.18961638	     -0.14812041	      4.85449971	     -0.54317366	     -9.81375690	     11.09886902	     -4.87246083	      3.39046870	     -7.41537217	     -3.05346821	     -2.65889125
      1.25016667	     -1.83588800	      0.96704654	     -0.60069561	      0.27338019	      0.91990411	      0.30952026	     30.84192569	     -1.67231831	     -7.86739751	    -61.86870776	      1.25802042	      2.20763965	      5.15815117	     -0.73052375	      4.71629102	     -0.46479529	     -9.36329478	     11.10899076	     -4.80064316	      3.39970353	     -7.49407534	     -2.90975242	     -2.84518440
      1.25433333	     -1.81584976	      0.85276693	     -0.48127124	      0.27822594	      0.91997509	      0.30944507	     31.05221981	     -1.45915907	     -7.87996632	    -60.49111343	      1.40942211	      2.06383191	      5.12668245	     -1.29687980	      4.58580701	     -0.39751834	     -8.92657792	     11.11983483	     -4.72088729	      3.41041049	     -7.56230233	     -2.77696201	     -3.02702973
      1.25850000	     -1.78808465	      0.74749253	     -0.36707836	      0.28307843	      0.91999676	      0.30939387	     31.23311839	     -1.25071146	     -7.88089287	    -59.06778411	      1.53834625	      1.88831501	      5.09130253	     -1.86894772	      4.46207494	     -0.34293755	     -8.49672183	     11.14009073	     -4.63861784	      3.42377040	     -7.64232587	     -2.65637578	     -3.21301449
      1.26266667	     -1.76085676	      0.65100001	     -0.25565950	      0.28793656	      0.91995719	      0.30934108	     31.39377322	     -1.05133369	     -7.87192801	    -57.60266443	      1.64216167	      1.68535392	      5.04872861	     -2.43700023	      4.34715958	     -0.29200407	     -8.07449844	     11.16996258	     -4.55087679	      3.44098011	     -7.72143924	     -2.54804193	     -3.40894665
      1.26683333	     -1.74322547	      0.56287694	     -0.14773206	      0.29280768	      0.91984331	      0.30930803	     31.54240789	     -0.85709130	     -7.85159362	    -56.09552900	      1.74150387	      1.47228133	      5.00346572	     -2.98582038	      4.23815135	     -0.25995895	     -7.67265874	     11.19899277	     -4.45423993	      3.45986385	     -7.78451007	     -2.44756345	     -3.59353319
      1.27100000	     -1.72430477	      0.48464293	     -0.04524400	      0.29768889	      0.91967260	      0.30928550	     31.66842845	     -0.66951199	     -7.81689016	    -54.54870892	      1.81373040	      1.23557552	      4.95098571	     -3.53148972	      4.13841002	     -0.23756107	     -7.28174229	     11.24090279	     -4.34946016	      3.48257005	     -7.85027392	     -2.36145873	     -3.77914894
